<mxfile host="app.diagrams.net" modified="2023-07-07T17:13:42.231Z" agent="Mozilla/5.0 (Macintosh; Intel Mac OS X 10_15_7) AppleWebKit/537.36 (KHTML, like Gecko) Chrome/114.0.0.0 Safari/537.36" version="21.5.2" etag="Oh01lZmGKspeVjAjT4zz" type="github">
  <diagram name="Page-1" id="PZb6cSO_VA3QjaMXQ5yu">
    <mxGraphModel>
      <root>
        <mxCell id="0" />
        <mxCell id="1" parent="0" />
      </root>
    </mxGraphModel>
  </diagram>
</mxfile>
